<svg width="41" height="27" viewBox="0 0 41 27" fill="none" xmlns="http://www.w3.org/2000/svg">
<path d="M12.6222 11.336L9.82443 12.0035C8.87041 12.2311 8.04762 12.8357 7.53708 13.6843C7.02654 14.5329 6.87007 15.5561 7.10208 16.5286C7.33409 17.5012 7.93559 18.3435 8.77425 18.8702C9.6129 19.397 10.62 19.5651 11.574 19.3375L14.7036 18.5909C14.8276 18.5613 14.9346 18.4827 15.0009 18.3724C15.0673 18.2621 15.0876 18.1291 15.0575 18.0026L13.0493 9.5848C12.8752 8.85113 12.9436 8.08159 13.244 7.39575C13.5444 6.70991 14.0599 6.14617 14.7105 5.79211C15.361 5.43806 16.1102 5.31352 16.8415 5.43785C17.5729 5.56217 18.2455 5.92839 18.7548 6.47962L23.7343 11.8761L22.6417 7.29642C22.4676 6.56274 22.5361 5.7932 22.8364 5.10736C23.1368 4.42152 23.6524 3.85778 24.3029 3.50373C24.9534 3.14968 25.7026 3.02514 26.4339 3.14946C27.1653 3.27378 27.8379 3.64001 28.3473 4.19123L33.3267 9.58772L31.44 1.6792L33.4385 1.20246L33.9353 1.51455L34.2378 1.01176L36.2363 0.535009L39.5246 14.3189C39.6987 15.0526 39.6302 15.8221 39.3298 16.5079C39.0295 17.1938 38.5139 17.7575 37.8634 18.1116C37.2129 18.4656 36.4637 18.5902 35.7324 18.4658C35.001 18.3415 34.3284 17.9753 33.819 17.4241L28.8396 12.0276L29.9321 16.6073C30.1063 17.3409 30.0378 18.1105 29.7374 18.7963C29.437 19.4822 28.9215 20.0459 28.271 20.4C27.6204 20.754 26.8713 20.8786 26.1399 20.7542C25.4086 20.6299 24.736 20.2637 24.2266 19.7125L19.2472 14.316L20.3397 18.8957C20.5503 19.7785 20.4083 20.7073 19.9448 21.4777C19.4814 22.248 18.7345 22.7969 17.8684 23.0035L12.7405 24.2268C10.5144 24.7579 8.16445 24.3657 6.20759 23.1366C4.25072 21.9075 2.84723 19.9421 2.30587 17.6728C1.7645 15.4035 2.12961 13.0162 3.32087 11.0361C4.51213 9.05594 6.43196 7.64517 8.65802 7.11412L11.4558 6.44667L11.9418 8.4839L11.6393 8.98669L12.1362 9.29879L12.6222 11.336Z" fill="#CC0000"/>
<path fill-rule="evenodd" clip-rule="evenodd" d="M34.2375 1.01157L37.526 14.7962C37.5933 15.0805 37.5668 15.3786 37.4504 15.6444C37.3341 15.9102 37.1346 16.1288 36.8826 16.2663C36.6307 16.4038 36.3405 16.4525 36.0571 16.4049C35.7736 16.3574 35.5126 16.2161 35.3147 16.0031L35.3141 16.0025L35.3136 16.002L26.2556 6.18402C26.2553 6.18378 26.2551 6.18353 26.2549 6.18329C26.1819 6.10508 26.0858 6.05322 25.9815 6.03571C25.8769 6.01815 25.7698 6.03614 25.6768 6.08688C25.5839 6.13763 25.5102 6.2183 25.4673 6.3164C25.4243 6.4145 25.4145 6.52455 25.4394 6.62949L27.9336 17.0845C28.0009 17.3689 27.9743 17.667 27.858 17.9328C27.7417 18.1986 27.5421 18.4172 27.2902 18.5547C27.0383 18.6922 26.7481 18.7409 26.4646 18.6933C26.1812 18.6457 25.9202 18.5045 25.7222 18.2915L25.7217 18.2909L16.6631 8.47241C16.663 8.47227 16.6629 8.47212 16.6627 8.47197C16.5897 8.3936 16.4935 8.34163 16.3891 8.3241C16.2845 8.30653 16.1774 8.32452 16.0844 8.37527C15.9914 8.42602 15.9178 8.50669 15.8748 8.60479C15.8319 8.70289 15.8221 8.81294 15.847 8.91788L18.341 19.3722C18.3814 19.5418 18.3887 19.7176 18.3624 19.8895C18.3361 20.0614 18.2768 20.226 18.1877 20.374C18.0987 20.5221 17.9817 20.6505 17.8435 20.7521C17.7053 20.8537 17.5485 20.9264 17.3821 20.9661L12.2541 22.1894C10.5581 22.594 8.76766 22.2952 7.27671 21.3588C5.78577 20.4223 4.71644 18.9249 4.30397 17.1959C3.89151 15.4669 4.16968 13.648 5.07731 12.1393C5.98494 10.6306 7.44767 9.55577 9.14371 9.15116L11.9415 8.48372L12.1359 9.29861L9.33811 9.96605C7.85407 10.3201 6.57419 11.2606 5.78001 12.5807C4.98584 13.9008 4.74243 15.4923 5.10334 17.0052C5.46425 18.518 6.39991 19.8283 7.70449 20.6477C9.00907 21.4671 10.5757 21.7286 12.0597 21.3745L17.1877 20.1512C17.2491 20.1365 17.307 20.1097 17.358 20.0722C17.409 20.0347 17.4522 19.9873 17.485 19.9327C17.5179 19.8781 17.5398 19.8173 17.5495 19.7538C17.5592 19.6904 17.5565 19.6255 17.5416 19.5629L15.0473 9.10752L15.0473 9.10717C14.9799 8.82285 15.0065 8.52469 15.1228 8.25889C15.2391 7.9931 15.4387 7.77452 15.6906 7.63703C15.9425 7.49953 16.2327 7.4508 16.5162 7.49839C16.7997 7.54597 17.0606 7.68721 17.2586 7.90022L17.2591 7.90079L26.3177 17.7193C26.3179 17.7195 26.3181 17.7197 26.3183 17.72C26.3913 17.7982 26.4874 17.8501 26.5917 17.8676C26.6963 17.8852 26.8034 17.8672 26.8964 17.8164C26.9894 17.7657 27.063 17.685 27.106 17.5869C27.1489 17.4888 27.1587 17.3788 27.1339 17.2738L24.6397 6.81879C24.5724 6.53446 24.5989 6.2363 24.7152 5.97051C24.8315 5.70472 25.0311 5.48614 25.283 5.34864C25.5349 5.21115 25.8251 5.16242 26.1086 5.21C26.3921 5.25758 26.653 5.39883 26.851 5.61184L26.8515 5.6124L26.8521 5.61297L35.9101 15.4309C35.9103 15.4311 35.9104 15.4312 35.9106 15.4314C35.9836 15.5098 36.0797 15.5617 36.1841 15.5792C36.2888 15.5968 36.3959 15.5788 36.4888 15.5281C36.5818 15.4773 36.6555 15.3966 36.6984 15.2985C36.7413 15.2004 36.7511 15.0904 36.7263 14.9854L33.4381 1.20227L34.2375 1.01157Z" fill="white"/>
<path fill-rule="evenodd" clip-rule="evenodd" d="M34.2375 1.01157L37.526 14.7962C37.5933 15.0805 37.5668 15.3786 37.4504 15.6444C37.3341 15.9102 37.1346 16.1288 36.8826 16.2663C36.6307 16.4038 36.3405 16.4525 36.0571 16.4049C35.7736 16.3574 35.5126 16.2161 35.3147 16.0031L35.3141 16.0025L35.3136 16.002L26.2556 6.18402C26.2553 6.18378 26.2551 6.18353 26.2549 6.18329C26.1819 6.10508 26.0858 6.05322 25.9815 6.03571C25.8769 6.01815 25.7698 6.03614 25.6768 6.08688C25.5839 6.13763 25.5102 6.2183 25.4673 6.3164C25.4243 6.4145 25.4145 6.52455 25.4394 6.62949L27.9336 17.0845C28.0009 17.3689 27.9743 17.667 27.858 17.9328C27.7417 18.1986 27.5421 18.4172 27.2902 18.5547C27.0383 18.6922 26.7481 18.7409 26.4646 18.6933C26.1812 18.6457 25.9202 18.5045 25.7222 18.2915L25.7217 18.2909L16.6631 8.47241C16.663 8.47227 16.6629 8.47212 16.6627 8.47197C16.5897 8.3936 16.4935 8.34163 16.3891 8.3241C16.2845 8.30653 16.1774 8.32452 16.0844 8.37527C15.9914 8.42602 15.9178 8.50669 15.8748 8.60479C15.8319 8.70289 15.8221 8.81294 15.847 8.91788L18.341 19.3722C18.3814 19.5418 18.3887 19.7176 18.3624 19.8895C18.3361 20.0614 18.2768 20.226 18.1877 20.374C18.0987 20.5221 17.9817 20.6505 17.8435 20.7521C17.7053 20.8537 17.5485 20.9264 17.3821 20.9661L12.2541 22.1894C10.5581 22.594 8.76766 22.2952 7.27671 21.3588C5.78577 20.4223 4.71644 18.9249 4.30397 17.1959C3.89151 15.4669 4.16968 13.648 5.07731 12.1393C5.98494 10.6306 7.44767 9.55577 9.14371 9.15116L11.9415 8.48372L12.1359 9.29861L9.33811 9.96605C7.85407 10.3201 6.57419 11.2606 5.78001 12.5807C4.98584 13.9008 4.74243 15.4923 5.10334 17.0052C5.46425 18.518 6.39991 19.8283 7.70449 20.6477C9.00907 21.4671 10.5757 21.7286 12.0597 21.3745L17.1877 20.1512C17.2491 20.1365 17.307 20.1097 17.358 20.0722C17.409 20.0347 17.4522 19.9873 17.485 19.9327C17.5179 19.8781 17.5398 19.8173 17.5495 19.7538C17.5592 19.6904 17.5565 19.6255 17.5416 19.5629L15.0473 9.10752L15.0473 9.10717C14.9799 8.82285 15.0065 8.52469 15.1228 8.25889C15.2391 7.9931 15.4387 7.77452 15.6906 7.63703C15.9425 7.49953 16.2327 7.4508 16.5162 7.49839C16.7997 7.54597 17.0606 7.68721 17.2586 7.90022L17.2591 7.90079L26.3177 17.7193C26.3179 17.7195 26.3181 17.7197 26.3183 17.72C26.3913 17.7982 26.4874 17.8501 26.5917 17.8676C26.6963 17.8852 26.8034 17.8672 26.8964 17.8164C26.9894 17.7657 27.063 17.685 27.106 17.5869C27.1489 17.4888 27.1587 17.3788 27.1339 17.2738L24.6397 6.81879C24.5724 6.53446 24.5989 6.2363 24.7152 5.97051C24.8315 5.70472 25.0311 5.48614 25.283 5.34864C25.5349 5.21115 25.8251 5.16242 26.1086 5.21C26.3921 5.25758 26.653 5.39883 26.851 5.61184L26.8515 5.6124L26.8521 5.61297L35.9101 15.4309C35.9103 15.4311 35.9104 15.4312 35.9106 15.4314C35.9836 15.5098 36.0797 15.5617 36.1841 15.5792C36.2888 15.5968 36.3959 15.5788 36.4888 15.5281C36.5818 15.4773 36.6555 15.3966 36.6984 15.2985C36.7413 15.2004 36.7511 15.0904 36.7263 14.9854L33.4381 1.20227L34.2375 1.01157Z" fill="white"/>
</svg>
