<svg width="32" height="33" viewBox="0 0 32 33" fill="none" xmlns="http://www.w3.org/2000/svg">
<path fill-rule="evenodd" clip-rule="evenodd" d="M16.026 0.45459C7.20382 0.45459 0.052002 7.6064 0.052002 16.4286C0.052002 25.2508 7.20382 32.4026 16.026 32.4026C24.8482 32.4026 32.0001 25.2508 32.0001 16.4286C32.0001 7.6064 24.8482 0.45459 16.026 0.45459ZM12.5139 7.96101C13.4226 7.91965 13.713 7.90953 16.0268 7.90953H16.0241C18.3386 7.90953 18.6279 7.91965 19.5366 7.96101C20.4436 8.00254 21.0631 8.14613 21.6062 8.35681C22.1671 8.57424 22.641 8.86532 23.1149 9.33922C23.5888 9.81277 23.8798 10.2881 24.0982 10.8484C24.3076 11.3901 24.4514 12.0092 24.494 12.9162C24.5348 13.825 24.5454 14.1153 24.5454 16.4291C24.5454 18.7429 24.5348 19.0325 24.494 19.9413C24.4514 20.8479 24.3076 21.4672 24.0982 22.0091C23.8798 22.5692 23.5888 23.0445 23.1149 23.5181C22.6415 23.992 22.1669 24.2838 21.6067 24.5014C21.0647 24.7121 20.4449 24.8557 19.5379 24.8972C18.6291 24.9386 18.3396 24.9487 16.0257 24.9487C13.7121 24.9487 13.4219 24.9386 12.5131 24.8972C11.6063 24.8557 10.9871 24.7121 10.445 24.5014C9.88503 24.2838 9.40971 23.992 8.93635 23.5181C8.46262 23.0445 8.17154 22.5692 7.95376 22.0089C7.74325 21.4672 7.59966 20.8481 7.55795 19.9411C7.51677 19.0324 7.50648 18.7429 7.50648 16.4291C7.50648 14.1153 7.51713 13.8248 7.55777 12.916C7.5986 12.0094 7.74236 11.3901 7.95358 10.8483C8.17189 10.2881 8.46298 9.81277 8.93688 9.33922C9.41042 8.8655 9.88575 8.57441 10.4461 8.35681C10.9878 8.14613 11.6069 8.00254 12.5139 7.96101Z" fill="#24272A"/>
<path fill-rule="evenodd" clip-rule="evenodd" d="M15.2625 9.44427C15.4109 9.44404 15.5706 9.44411 15.7429 9.44419L16.0268 9.44427C18.3015 9.44427 18.5711 9.45243 19.4694 9.49326C20.3001 9.53124 20.7509 9.67004 21.0512 9.78665C21.4488 9.94107 21.7323 10.1257 22.0303 10.4238C22.3285 10.722 22.513 11.006 22.6678 11.4036C22.7844 11.7036 22.9234 12.1544 22.9612 12.985C23.002 13.8831 23.0109 14.1529 23.0109 16.4266C23.0109 18.7002 23.002 18.97 22.9612 19.8681C22.9232 20.6988 22.7844 21.1496 22.6678 21.4496C22.5134 21.8472 22.3285 22.1303 22.0303 22.4283C21.7321 22.7265 21.449 22.911 21.0512 23.0655C20.7513 23.1826 20.3001 23.321 19.4694 23.359C18.5713 23.3999 18.3015 23.4087 16.0268 23.4087C13.7519 23.4087 13.4823 23.3999 12.5842 23.359C11.7535 23.3207 11.3027 23.1819 11.0022 23.0653C10.6046 22.9109 10.3207 22.7263 10.0225 22.4281C9.72428 22.1299 9.53969 21.8466 9.38492 21.4489C9.26831 21.1489 9.12933 20.6981 9.09153 19.8674C9.05071 18.9693 9.04254 18.6995 9.04254 16.4245C9.04254 14.1494 9.05071 13.881 9.09153 12.9829C9.12951 12.1522 9.26831 11.7014 9.38492 11.4011C9.53934 11.0035 9.72428 10.7195 10.0225 10.4214C10.3207 10.1232 10.6046 9.93858 11.0022 9.78381C11.3025 9.66666 11.7535 9.52822 12.5842 9.49006C13.3701 9.45456 13.6747 9.44391 15.2625 9.44214V9.44427ZM20.5745 10.8588C20.01 10.8588 19.5521 11.3162 19.5521 11.8808C19.5521 12.4452 20.01 12.9031 20.5745 12.9031C21.1389 12.9031 21.5968 12.4452 21.5968 11.8808C21.5968 11.3164 21.1389 10.8584 20.5745 10.8584V10.8588ZM11.6517 16.4281C11.6517 14.012 13.6105 12.053 16.0266 12.0529C18.4428 12.0529 20.4013 14.0119 20.4013 16.4281C20.4013 18.8443 18.443 20.8024 16.0268 20.8024C13.6106 20.8024 11.6517 18.8443 11.6517 16.4281Z" fill="#24272A"/>
<path fill-rule="evenodd" clip-rule="evenodd" d="M16.0268 13.5889C17.5951 13.5889 18.8667 14.8602 18.8667 16.4287C18.8667 17.997 17.5951 19.2686 16.0268 19.2686C14.4583 19.2686 13.187 17.997 13.187 16.4287C13.187 14.8602 14.4583 13.5889 16.0268 13.5889V13.5889Z" fill="#24272A"/>
</svg>
