<svg width="43" height="24" viewBox="0 0 43 24" fill="none" xmlns="http://www.w3.org/2000/svg">
<path d="M6.18222 19.6781V12.9657L0.54245 16.3089L6.18222 19.6781Z" fill="white"/>
<path d="M0 24L5.63977 20.6568L0 17.279V24Z" fill="white"/>
<path d="M9.72107 9.24146L12.9844 15.0617L16.2219 9.24146C16.2305 9.24146 9.72107 9.24146 9.72107 9.24146Z" fill="white"/>
<path d="M13.9057 16.7419L17.169 22.5622L20.4065 16.7419H13.9057Z" fill="white"/>
<path d="M18.0903 23.1252H24.6256L21.3622 17.3049L18.0903 23.1252Z" fill="white"/>
<path d="M0 15.3388V15.3648L5.63977 11.9956L0 8.62646V15.3388Z" fill="white"/>
<path d="M0 6.71238L5.63977 3.36918V3.3432L0 0V6.71238Z" fill="white"/>
<path d="M36.8178 15.3388V15.3648L42.4576 11.9956L36.8178 8.62646V15.3388Z" fill="white"/>
<path d="M36.8178 6.71238L42.4576 3.36918V3.3432L36.8178 0V6.71238Z" fill="white"/>
<path d="M29.7401 15.0617L33.0034 9.24146H26.4682L29.7401 15.0617Z" fill="white"/>
<path d="M25.5382 9.80438L22.3008 15.6247H28.8102L25.5382 9.80438Z" fill="white"/>
<path d="M25.5555 22.5622L28.7929 16.7419H22.2835L25.5555 22.5622Z" fill="white"/>
<path d="M37.3602 16.3089L43 19.6781V12.9657L37.3602 16.3089Z" fill="white"/>
<path d="M36.8178 24L42.4576 20.6568L36.8178 17.2876C36.8178 17.2789 36.8178 24 36.8178 24Z" fill="white"/>
<path d="M20.4409 15.6247L17.1776 9.80438L13.9401 15.6247H20.4409Z" fill="white"/>
</svg>
