<svg width="53" height="32" viewBox="0 0 53 32" fill="none" xmlns="http://www.w3.org/2000/svg">
<path d="M5.97548 2.61437C6.03928 2.57674 6.07704 2.53326 6.08973 2.48297C6.10559 2.42011 6.08623 2.36198 6.03244 2.30829C6.01014 2.28857 5.96226 2.26407 5.88903 2.23198C5.81613 2.1995 5.74 2.16453 5.66239 2.12488C5.58433 2.08513 5.51375 2.04344 5.44993 2.00083C5.3861 1.95822 5.35915 1.91774 5.36866 1.88003C5.39098 1.79158 5.55631 1.7533 5.86471 1.76498C6.1351 1.76659 6.40715 1.78747 6.68095 1.83006C6.95453 1.87259 7.21825 1.92552 7.47306 1.98982C8.73283 2.30771 9.88605 2.71309 10.933 3.20389C11.98 3.69468 13.0158 4.29753 14.0409 5.00967C14.5247 5.34572 15.0214 5.72464 15.5305 6.14683C16.0399 6.56908 16.5284 7.02045 16.9965 7.49841C17.4646 7.97711 17.8993 8.48104 18.3005 9.00971C18.7018 9.53867 19.0322 10.0793 19.292 10.6325C19.5518 11.1859 19.7289 11.7449 19.8231 12.3098C19.9173 12.8747 19.895 13.4338 19.7556 13.9863C19.6129 14.5516 19.3804 15.0034 19.0577 15.3432C18.7349 15.683 18.3577 15.945 17.9253 16.1292C17.4928 16.314 17.027 16.4304 16.5275 16.478C16.0281 16.5258 15.5279 16.5367 15.0268 16.5103C14.5258 16.4842 14.0431 16.4259 13.5786 16.3354C13.114 16.2447 12.7101 16.1561 12.3666 16.0694C12.1247 16.0084 11.8407 15.9134 11.5146 15.7845C11.1886 15.6552 10.8966 15.4578 10.6385 15.1923L11.6463 11.1183C11.729 11.1127 11.8039 11.1115 11.8704 11.1147C11.9374 11.118 12.0343 11.136 12.1618 11.1682C12.5437 11.2645 12.9364 11.3973 13.3406 11.5659C13.745 11.7346 14.1227 11.9135 14.4742 12.1025C14.8259 12.2915 15.1277 12.4777 15.379 12.6613C15.6304 12.8453 15.7928 13.0061 15.866 13.1454C15.7704 13.2553 15.6195 13.3569 15.4128 13.4523C15.206 13.5465 15.0124 13.6576 14.8308 13.7864C14.9134 13.8874 15.0353 13.9822 15.1962 14.0694C15.3571 14.156 15.4946 14.2146 15.6092 14.2435C15.7746 14.2853 15.9455 14.2785 16.1223 14.2226C16.2988 14.1668 16.4671 14.0887 16.6278 13.9893C16.7884 13.8895 16.9257 13.7739 17.0404 13.6419C17.1549 13.5103 17.2263 13.3879 17.2548 13.2752C17.3339 12.9616 17.3019 12.6589 17.1585 12.3695C17.0151 12.0796 16.7984 11.8109 16.5091 11.5638C16.2192 11.3171 15.8841 11.089 15.504 10.8792C15.1237 10.6698 14.7403 10.4864 14.3534 10.3286C13.9668 10.1708 13.5984 10.0344 13.2486 9.91914C12.8985 9.80456 12.6155 9.71928 12.3992 9.66471L12.1319 9.59727C12.1603 9.37781 12.1926 9.16865 12.2291 8.97013L12.336 8.38602C12.3771 8.16932 12.409 7.96269 12.4308 7.76809C12.4533 7.57293 12.4552 7.39049 12.4375 7.21864C12.4199 7.04706 12.3792 6.87296 12.3156 6.69645C12.2518 6.51988 12.1481 6.34042 12.0047 6.1569C11.8651 6.2284 11.7242 6.38316 11.5828 6.62209C11.4416 6.86013 11.3089 7.11725 11.1851 7.39262C11.0614 7.66872 10.9535 7.92231 10.8613 8.15265C10.7693 8.38327 10.717 8.52362 10.7043 8.57413L10.4714 9.33633C9.48845 9.26237 8.66621 9.24879 8.0044 9.29575C7.34282 9.34276 6.74791 9.47275 6.22042 9.6866C5.72751 9.86955 5.44495 10.1056 5.37215 10.3941C5.29919 10.6832 5.32794 10.9978 5.45885 11.3379C5.58947 11.6782 5.73438 11.9886 5.89392 12.2689C6.07559 12.6221 6.39412 13.0766 6.84931 13.6323C7.30491 14.1883 7.90801 14.8283 8.65952 15.5517C8.6502 15.8564 8.64513 16.1462 8.64357 16.4192C8.64241 16.6926 8.68969 16.9347 8.78516 17.1465L9.2147 17.295C9.34222 17.3272 9.45811 17.35 9.56333 17.3624C9.6681 17.3757 9.78137 17.384 9.90231 17.3878L10.1667 16.9435C10.2257 16.8447 10.2802 16.7482 10.3311 16.6545C10.7478 16.8263 11.1932 17.0057 11.6677 17.1921C12.1415 17.3785 12.6014 17.528 13.0469 17.6404C13.912 17.8587 14.8007 17.9726 15.7118 17.9819C16.6232 17.9913 17.4754 17.8727 18.2691 17.6255C19.0623 17.3782 19.7523 16.9909 20.3387 16.4643C20.9251 15.9376 21.3261 15.2468 21.5414 14.3934C21.7031 13.7527 21.715 13.0878 21.5776 12.3982C21.4404 11.7092 21.2003 11.024 20.8576 10.3429C20.5149 9.66187 20.1002 8.9994 19.613 8.35519C19.1261 7.71104 18.6142 7.11144 18.0777 6.5546C17.541 5.99843 17.0047 5.49559 16.4682 5.04669C15.9318 4.5978 15.4504 4.22608 15.0239 3.93099C14.1646 3.36673 13.2522 2.83942 12.286 2.34873C11.3201 1.85808 10.4045 1.5031 9.5393 1.28478C9.32306 1.23021 9.06128 1.16774 8.75439 1.09651C8.44739 1.02573 8.12707 0.968538 7.79291 0.924095C7.45869 0.879876 7.11938 0.857773 6.77406 0.857556C6.42885 0.85689 6.11559 0.892224 5.83405 0.961589C5.55262 1.03051 5.3074 1.14533 5.09746 1.30679C4.88765 1.4678 4.74631 1.69219 4.67341 1.98111C4.64174 2.1066 4.71977 2.21345 4.90754 2.30048C5.0952 2.38795 5.29738 2.45902 5.51362 2.51358C5.6155 2.53929 5.70847 2.55917 5.79277 2.57423C5.87644 2.59177 5.93736 2.60475 5.97548 2.61437ZM10.0482 10.696L8.95418 14.3074C8.53403 14.0949 8.13622 13.834 7.76074 13.5249C7.38508 13.2164 7.07602 12.8984 6.83411 12.5696C6.71938 12.4342 6.59851 12.2838 6.47106 12.1175C6.3435 11.9516 6.22331 11.7842 6.11026 11.6152C5.99722 11.4463 5.91027 11.2811 5.84993 11.1185C5.78901 10.9563 5.77456 10.8127 5.80639 10.6865C5.84763 10.5231 6.00256 10.4189 6.27152 10.3727C6.54031 10.327 6.86866 10.3132 7.2567 10.3306C7.6449 10.3484 8.0671 10.3911 8.52372 10.46C8.98018 10.5287 9.41849 10.5889 9.83847 10.6414L10.0486 10.6944L10.0482 10.696Z" fill="black"/>
<path d="M28.0758 8.15121C28.0664 7.92196 27.9292 7.70038 27.6654 7.48623C27.4011 7.2727 27.0589 7.11303 26.6389 7.00705C26.1805 6.89139 25.7084 6.87254 25.2216 6.94982C24.735 7.02761 24.281 7.16353 23.8599 7.35744C23.4388 7.55134 23.077 7.79148 22.7755 8.07479C22.4733 8.36005 22.2826 8.65939 22.2035 8.97278C22.1496 9.18628 22.1482 9.39294 22.1992 9.5935C22.2502 9.79406 22.3219 10.0053 22.4146 10.2288C22.3891 10.2764 22.3629 10.3266 22.3357 10.3799C22.3088 10.4333 22.289 10.4847 22.2763 10.5352C22.2478 10.7551 22.2624 10.9529 22.3199 11.1274C22.3774 11.3024 22.4535 11.4149 22.5492 11.4661C22.6956 11.476 22.8148 11.4464 22.9072 11.3759C22.9996 11.3053 23.1122 11.2206 23.2455 11.1207C23.4078 11.2283 23.5941 11.3221 23.8041 11.4016C24.0141 11.4816 24.2146 11.5453 24.4054 11.5935C24.7235 11.6737 25.1227 11.6747 25.603 11.5953C26.0833 11.5159 26.5577 11.3786 27.0267 11.1832C27.4957 10.9878 27.9138 10.7387 28.2809 10.4373C28.6479 10.1366 28.8777 9.8035 28.9697 9.43914C29.0139 9.26381 29.0104 9.10269 28.9597 8.95568C28.9086 8.80907 28.8368 8.67752 28.7444 8.56061C28.6522 8.44375 28.5504 8.35095 28.4387 8.28266C28.3275 8.21471 28.2335 8.17117 28.157 8.15187C28.1316 8.14546 28.1147 8.14453 28.107 8.14905C28.0989 8.15345 28.0885 8.15442 28.0758 8.15121ZM23.4471 12.4938C23.3838 12.4778 23.3343 12.5124 23.2994 12.5972C22.9313 13.5194 22.6623 14.2364 22.4926 14.7481C22.3231 15.2591 22.2141 15.583 22.1667 15.7175C22.0906 15.9655 22.0309 16.1608 21.9882 16.304C21.9454 16.4472 21.9048 16.58 21.8669 16.7044C21.8289 16.8283 21.7909 16.9656 21.7527 17.1169L21.6101 17.6822C21.5973 17.7327 21.5878 17.8105 21.5816 17.9155C21.5754 18.0204 21.5745 18.131 21.5794 18.2456C21.5843 18.361 21.5971 18.471 21.618 18.5766C21.6385 18.682 21.6793 18.7487 21.7399 18.7776C21.8098 18.8217 21.8925 18.87 21.9881 18.9204C22.0835 18.971 22.1694 19.0063 22.2459 19.0256C22.4876 19.0866 22.665 19.0549 22.778 18.9294C22.8908 18.8039 22.9661 18.666 23.0042 18.5149C23.1942 17.7619 23.3632 16.9862 23.5102 16.1885C23.6573 15.3903 23.8148 14.6055 23.9827 13.8327C24.0492 13.4624 24.0618 13.1711 24.0201 12.9607C23.9783 12.7503 23.7874 12.5933 23.4471 12.4938ZM24.1128 10.1774C24.3702 9.96152 24.6482 9.75778 24.9471 9.56623C25.246 9.37445 25.5479 9.20994 25.8532 9.07348C26.1583 8.93651 26.4596 8.84252 26.7571 8.79008C27.0544 8.73855 27.3432 8.74766 27.623 8.81826C27.8776 8.8825 28.0131 8.96304 28.0289 9.06111C28.0448 9.15895 28.0354 9.27669 28.0006 9.41452C27.9277 9.70345 27.7584 9.9313 27.493 10.0983C27.2275 10.2651 26.923 10.385 26.5797 10.4591C26.2363 10.5327 25.8889 10.5685 25.5372 10.5667C25.1858 10.5647 24.8892 10.5333 24.6475 10.4723L24.2273 10.3663C24.2021 10.3599 24.1748 10.3332 24.1463 10.2856C24.1179 10.2384 24.1065 10.2023 24.1128 10.1774ZM23.1387 9.2102C23.2688 8.85546 23.5126 8.55975 23.8703 8.32312C24.228 8.08622 24.6611 7.97846 25.1704 7.9995C25.1895 8.03061 25.1943 8.06525 25.1847 8.10341L25.18 8.12182C25.0401 8.19325 24.8797 8.28005 24.6982 8.38135C24.5167 8.48287 24.3382 8.58756 24.1616 8.69726L23.6677 9.00388C23.5152 9.09936 23.3963 9.18208 23.3102 9.25466C23.2786 9.27272 23.2433 9.27789 23.2051 9.26827C23.1801 9.26051 23.1578 9.24153 23.1387 9.2102Z" fill="black"/>
<path d="M25.9168 14.8809C26.0344 14.8437 26.1743 14.8255 26.3368 14.8264C26.499 14.8272 26.7456 14.8427 27.0764 14.8726C27.2352 14.8862 27.4645 14.9168 27.7632 14.9659C28.0625 15.0147 28.3772 15.0674 28.7083 15.1239C29.0393 15.181 29.3595 15.2384 29.6697 15.2966C29.9801 15.3548 30.2211 15.3918 30.3927 15.409C30.4722 15.415 30.5811 15.4263 30.7196 15.4411C30.858 15.456 30.9687 15.4601 31.0513 15.4549C31.1625 15.4428 31.2683 15.4127 31.3685 15.3647C31.4687 15.3157 31.5393 15.2368 31.5809 15.1267C31.6061 15.0268 31.6045 14.9526 31.5757 14.9052C31.5471 14.8579 31.5023 14.8201 31.442 14.7913C31.1429 14.6356 30.7951 14.4711 30.3993 14.2972C30.0031 14.1235 29.5629 13.9761 29.0794 13.8541C29.0542 13.8477 28.941 13.8256 28.7404 13.7886C28.5399 13.7519 28.2909 13.7191 27.9939 13.6903C27.6961 13.6622 27.378 13.649 27.0395 13.6505C26.7009 13.6513 26.3771 13.6873 26.0687 13.7558C25.7601 13.8253 25.4899 13.9436 25.2576 14.1133C25.0256 14.2818 24.8733 14.5096 24.8003 14.7988C24.7496 14.9999 24.7331 15.1732 24.7506 15.318C24.7685 15.4625 24.8529 15.5977 25.0041 15.7225C25.1552 15.8478 25.3913 15.9709 25.7129 16.0917C26.0342 16.2129 26.4669 16.349 27.0111 16.4995C27.2146 16.5509 27.4699 16.6389 27.7769 16.7632C28.084 16.8873 28.3807 17.0259 28.6673 17.1782C28.9537 17.3305 29.1898 17.4939 29.3762 17.6677C29.5624 17.8415 29.635 18.01 29.5937 18.1737C29.5493 18.3495 29.3714 18.4646 29.0595 18.5203C28.7477 18.5756 28.4067 18.5994 28.036 18.5927C27.6654 18.5862 27.3131 18.561 26.9789 18.5168C26.6449 18.4727 26.4332 18.4393 26.3443 18.4169C26.1662 18.3719 25.989 18.3234 25.8124 18.2724C25.6358 18.2213 25.4745 18.1632 25.3278 18.1002C25.1817 18.0363 25.0694 17.9581 24.9911 17.8645C24.9133 17.7711 24.8884 17.6684 24.917 17.555C24.9708 17.3417 25.0678 17.226 25.2079 17.2074C25.3479 17.189 25.4879 17.1978 25.6279 17.2331C25.8187 17.2813 26.0003 17.3536 26.1718 17.4506C26.3434 17.5479 26.5115 17.6469 26.6754 17.7484C26.8393 17.8497 26.9952 17.9426 27.1432 18.0265C27.2912 18.1104 27.4353 18.1706 27.5753 18.206C27.817 18.2669 28.0511 18.2794 28.2766 18.2427C28.5026 18.2057 28.6632 18.1595 28.7588 18.103C28.7902 18.0848 28.8126 18.0504 28.8254 17.9999C28.8317 17.975 28.8252 17.9461 28.8063 17.9148C28.4627 17.6142 28.0829 17.3614 27.6676 17.1564C27.2523 16.9513 26.8601 16.8022 26.4909 16.709C26.3001 16.6609 26.0981 16.6302 25.8851 16.6165C25.672 16.6029 25.4683 16.6181 25.2744 16.6626C25.0803 16.7079 24.9105 16.7914 24.764 16.9149C24.6177 17.0386 24.5161 17.2134 24.4591 17.4394C24.4115 17.6278 24.4435 17.8493 24.555 18.1055C24.6666 18.3608 24.8402 18.6111 25.0756 18.8582C25.3114 19.1042 25.5993 19.3311 25.94 19.5372C26.2803 19.7434 26.6543 19.898 27.0616 20.0008C27.2143 20.0393 27.4535 20.0834 27.7796 20.132C28.1057 20.1806 28.4491 20.1742 28.8103 20.1111C29.1713 20.0484 29.5115 19.9071 29.831 19.6873C30.1504 19.4671 30.3751 19.0999 30.5051 18.5847C30.6159 18.1453 30.594 17.7759 30.4396 17.4764C30.2849 17.1769 30.0638 16.9274 29.7757 16.7272C29.4878 16.5282 29.157 16.3643 28.7828 16.2364L27.7543 15.8869C27.3791 15.7652 27.0575 15.6439 26.7903 15.5228C26.5232 15.4017 26.2223 15.2254 25.8882 14.9943C25.8628 14.9879 25.853 14.9722 25.8594 14.9469C25.8658 14.9215 25.885 14.8989 25.9168 14.8809Z" fill="black"/>
<path d="M35.788 15.0275L35.7881 15.2682C35.792 15.7365 35.8046 16.1409 35.8279 16.4801C35.8506 16.8197 35.8641 17.1409 35.8693 17.4426C35.8748 17.7442 35.8607 18.0546 35.8273 18.3733C35.7941 18.6923 35.7238 19.0655 35.6161 19.4925C35.5749 19.6557 35.5409 19.777 35.514 19.8576C35.4874 19.9376 35.4414 19.9695 35.3781 19.9535C35.3913 19.9568 35.3588 19.8954 35.2823 19.7691C35.1071 19.3908 34.941 18.9616 34.7852 18.4812C34.6293 18.0011 34.4764 17.5451 34.3285 17.1137C34.1803 16.6823 34.0333 16.3112 33.8886 16.001C33.7434 15.6907 33.6013 15.5175 33.4613 15.4822C33.3213 15.4469 33.1717 15.503 33.0129 15.6494C32.8539 15.7963 32.6889 15.9951 32.517 16.2457C32.3458 16.4959 32.1796 16.7785 32.0192 17.0919C31.859 17.4052 31.7112 17.7222 31.5765 18.0417C31.4415 18.3617 31.3257 18.6599 31.229 18.9361C31.1323 19.2121 31.063 19.432 31.0219 19.5952C30.9934 19.7079 30.9673 19.8515 30.9438 20.0261C30.9199 20.2011 30.917 20.3735 30.9346 20.5455C30.9522 20.7167 30.9945 20.8713 31.0612 21.0088C31.1282 21.146 31.238 21.2339 31.3908 21.2724C31.4926 21.2981 31.5871 21.2852 31.6746 21.234C31.7624 21.1819 31.837 21.1138 31.8991 21.0292C31.9609 20.9449 32.0173 20.8555 32.0681 20.7614C32.1188 20.6674 32.1586 20.5901 32.1873 20.5307C32.2507 20.3867 32.3277 20.1752 32.418 19.8976C32.5085 19.6193 32.5981 19.3315 32.6871 19.0333C32.7758 18.7352 32.8567 18.4683 32.9295 18.2331C33.0025 17.9977 33.0531 17.8507 33.0817 17.7908C33.1549 17.6624 33.2169 17.6041 33.2677 17.6169C33.3061 17.6266 33.3505 17.7319 33.4016 17.9317C33.4529 18.1314 33.5093 18.3763 33.5716 18.6662C33.6342 18.9556 33.7037 19.2704 33.7804 19.61C33.857 19.9501 33.9487 20.2705 34.0558 20.5712C34.1629 20.8718 34.2898 21.1341 34.4356 21.3585C34.5822 21.5823 34.7441 21.717 34.9223 21.7619C35.1517 21.8198 35.3778 21.7931 35.6019 21.6827C35.8259 21.5725 36.0326 21.4105 36.2219 21.198C36.4115 20.9851 36.5743 20.7394 36.713 20.4604C36.8507 20.1816 36.9568 19.8972 37.0297 19.6083C37.1944 18.9554 37.264 18.3316 37.2377 17.7373C37.2118 17.1428 37.1368 16.6194 37.0144 16.168C36.8922 15.7159 36.7407 15.3503 36.5608 15.0716C36.3805 14.7923 36.227 14.6363 36.0999 14.6043C36.0108 14.5818 35.9448 14.6155 35.9021 14.7045C35.8592 14.794 35.828 14.8766 35.809 14.9518L35.7899 15.0275L35.7886 15.0272L35.7884 15.0276L35.788 15.0275Z" fill="black"/>
<path d="M41.7508 22.6434C41.7825 22.5174 41.7626 22.3794 41.6929 22.2281C41.6228 22.0764 41.5305 21.986 41.4157 21.957C41.3142 21.9315 41.2082 21.909 41.0983 21.8872C40.9883 21.8659 40.8815 21.8492 40.7758 21.8357C40.1493 21.7445 39.6516 21.6891 39.2843 21.6702C38.9169 21.6513 38.7076 21.6352 38.657 21.6225C38.8125 21.4346 38.9558 21.2437 39.0859 21.0492C39.2166 20.8548 39.3321 20.6636 39.4342 20.4754C39.4719 20.4309 39.5162 20.4163 39.5677 20.4293C40.0512 20.5513 40.489 20.6549 40.8804 20.74C41.2719 20.8252 41.5581 20.8848 41.7389 20.917C41.8319 20.9264 41.9039 20.8813 41.9566 20.7812C42.0086 20.6806 42.0447 20.5928 42.0637 20.5173C42.0861 20.4289 42.1039 20.3305 42.1184 20.2205C42.1322 20.1103 42.1221 20.0175 42.0869 19.9417L41.8289 19.8365L40.4157 19.4799C40.3526 19.464 40.3131 19.4304 40.299 19.38C40.2848 19.3301 40.2822 19.2858 40.2918 19.248C40.352 19.0094 40.4262 18.8347 40.5157 18.7231C40.6046 18.6118 40.6725 18.5425 40.7206 18.5145C40.7872 18.5175 40.884 18.5357 41.012 18.568C41.1395 18.6002 41.254 18.6255 41.3582 18.6451C41.4613 18.6647 41.5638 18.6872 41.6663 18.713C41.7678 18.7386 41.8893 18.7657 42.0315 18.7952C42.1729 18.8242 42.3472 18.8583 42.554 18.8967C42.6437 18.9193 42.7519 18.9302 42.8814 18.9289C43.01 18.9282 43.1299 18.9216 43.2416 18.9102C43.3528 18.8981 43.4528 18.8794 43.5401 18.8549C43.6273 18.8306 43.6779 18.793 43.6906 18.7427C43.7319 18.579 43.6944 18.3898 43.5802 18.173C43.4655 17.9571 43.3761 17.7879 43.3122 17.6643C43.1247 17.5506 42.9742 17.4725 42.8634 17.4307C42.7517 17.3892 42.6519 17.3573 42.5625 17.3347C42.1679 17.2352 41.8067 17.1641 41.4793 17.1216C41.1519 17.0791 40.8515 17.0472 40.5796 17.0254L39.8236 16.9646C39.5917 16.9464 39.3717 16.9172 39.1654 16.8789C38.9968 16.8495 38.8668 16.8437 38.7737 16.8603C38.6814 16.8772 38.6227 16.9359 38.5974 17.036C38.5721 17.1364 38.5837 17.2365 38.6335 17.336C38.6832 17.4354 38.753 17.5328 38.8436 17.6297C38.9347 17.7262 39.0363 17.8187 39.1496 17.9075L39.4724 18.1594L38.7525 19.0795C38.6595 19.07 38.5688 19.0697 38.4781 19.0803C38.3875 19.0913 38.3005 19.0992 38.2175 19.105C38.1735 19.1741 38.1352 19.2311 38.1035 19.2766C38.0717 19.3221 38.0461 19.3825 38.027 19.4581C38.0017 19.5585 38.0001 19.645 38.0224 19.7175C38.0447 19.7897 38.0565 19.8799 38.0563 19.9866C37.8818 20.2498 37.7043 20.5095 37.5246 20.7641C37.345 21.0187 37.2285 21.2537 37.1747 21.4669C37.0732 21.8694 37.1023 22.2639 37.2617 22.6516C37.421 23.0389 37.768 23.3003 38.3028 23.4353C38.6207 23.5155 38.9382 23.5457 39.2545 23.5252C39.5712 23.5049 39.8773 23.4584 40.1729 23.3861C40.4685 23.3139 40.7367 23.2313 40.9766 23.1376C41.2163 23.0444 41.413 22.9641 41.5658 22.8952C41.6534 22.8667 41.7158 22.7821 41.7508 22.6434Z" fill="black"/>
<path d="M41.4849 29.5502C41.7395 29.08 41.9607 28.6585 42.1497 28.2852C42.3389 27.9115 42.5284 27.5491 42.719 27.1962C42.9096 26.8436 43.1167 26.478 43.3408 26.1009C43.5647 25.7231 43.8407 25.2886 44.1679 24.7962C44.2475 24.8031 44.323 24.8119 44.3946 24.8235C44.4664 24.8355 44.5341 24.8485 44.5981 24.8646C44.9155 24.9447 45.3345 24.9506 45.8527 24.8808C46.3712 24.8115 46.8892 24.6612 47.4078 24.4317C47.9263 24.2017 48.3967 23.8928 48.8193 23.5056C49.2423 23.1185 49.5233 22.6478 49.6627 22.0953C49.7103 21.9068 49.7483 21.6757 49.7767 21.4027C49.8052 21.1291 49.806 20.859 49.778 20.5921C49.7507 20.3244 49.6766 20.0823 49.5555 19.8642C49.4343 19.6472 49.2528 19.5073 49.0112 19.4463C48.77 19.3854 48.4481 19.4379 48.0475 19.6041C47.6475 19.7699 47.223 19.9877 46.7769 20.2551C46.3303 20.5233 45.8913 20.8129 45.4608 21.1253C45.0299 21.4373 44.6625 21.715 44.3567 21.959C44.306 21.9994 44.2747 22.0181 44.2616 22.0147L44.2234 22.0051C44.2048 21.9739 44.197 21.9347 44.2017 21.8893C44.2066 21.8442 44.2139 21.8019 44.2233 21.7646C44.309 21.4252 44.482 21.1018 44.7422 20.7938C45.0032 20.4854 45.2403 20.2308 45.4526 20.031L46.3199 19.2484C46.495 19.092 46.6061 18.9192 46.6536 18.7311C46.698 18.5553 46.7139 18.4253 46.7011 18.3419C46.6879 18.2585 46.6151 18.1864 46.4814 18.1262C46.3765 18.1133 46.1663 18.2069 45.8519 18.4084C45.5375 18.6099 45.1977 18.8814 44.8343 19.2236C44.4709 19.566 44.1228 19.9629 43.7926 20.4137C43.4625 20.8646 43.2353 21.3348 43.1116 21.8249C43.0545 22.0511 43.0287 22.2882 43.0339 22.5367C43.0386 22.7848 43.064 23.035 43.1086 23.2869C42.6827 23.8478 42.3107 24.3848 41.9915 24.8991C41.6722 25.4134 41.4077 25.8737 41.1952 26.2816C40.9846 26.6893 40.8198 27.0315 40.7025 27.3092C40.5854 27.5867 40.5152 27.7694 40.4928 27.8581C40.3914 28.2597 40.4233 28.6316 40.5871 28.9736C40.7511 29.3154 41.0192 29.5538 41.3916 29.6879L41.4849 29.5502ZM45.5398 23.3796C45.5969 23.3138 45.6979 23.1955 45.8424 23.0247C45.987 22.8544 46.1471 22.6742 46.3242 22.4851C46.5001 22.2957 46.6665 22.1204 46.8226 21.9592C46.9786 21.798 47.0911 21.6859 47.1611 21.6236C47.2599 21.5545 47.3839 21.4659 47.5337 21.3563C47.6832 21.2477 47.837 21.1461 47.9961 21.0523C48.1556 20.9585 48.3104 20.8806 48.4617 20.8187C48.613 20.7566 48.7263 20.7351 48.803 20.7544C48.9305 20.7866 48.9875 20.8676 48.9748 20.9984C48.9621 21.1291 48.9436 21.2443 48.9182 21.3451C48.7249 22.1111 48.2958 22.6571 47.6313 22.9847C46.9172 23.3394 46.2204 23.4711 45.5398 23.3796Z" fill="black"/>
<path d="M14.4674 21.0327C14.4409 21.1376 14.377 21.2415 14.2755 21.3456C14.174 21.4494 14.0338 21.5399 13.8549 21.6179C13.6756 21.6959 13.4608 21.742 13.2108 21.7551C12.9609 21.7682 12.682 21.736 12.375 21.6586C12.1418 21.5997 11.9343 21.5304 11.7529 21.4507C11.5718 21.3706 11.4106 21.2767 11.2703 21.168C11.1301 21.0588 11.0077 20.9157 10.9036 20.7378C10.8147 20.6426 10.7444 20.5224 10.6936 20.3756C10.6429 20.2286 10.6143 20.0805 10.6093 19.93C10.604 19.7789 10.6213 19.6243 10.6615 19.4651C10.7264 19.2078 10.8357 18.9909 10.9892 18.814C11.1428 18.6374 11.3346 18.5002 11.5639 18.4033C11.7935 18.3065 12.0486 18.2522 12.3281 18.2423C12.6081 18.231 12.8947 18.263 13.1881 18.337C13.5463 18.4274 13.8525 18.5599 14.1065 18.7347C14.3602 18.9093 14.5433 19.0935 14.6551 19.2863C14.767 19.479 14.8052 19.6461 14.7701 19.785C14.7488 19.8697 14.689 19.9334 14.5913 19.9772C14.4934 20.0211 14.3855 20.0278 14.2679 19.9981C14.1395 19.9657 14.049 19.9197 13.9964 19.8603C13.9444 19.8006 13.8947 19.7124 13.8473 19.5951C13.7759 19.4193 13.6773 19.2771 13.5513 19.1682C13.4253 19.06 13.257 18.9793 13.0455 18.926C12.7083 18.8409 12.4151 18.8667 12.166 19.0033C11.9171 19.1405 11.7481 19.3856 11.6588 19.7394C11.5985 19.9785 11.5936 20.1872 11.6444 20.3646C11.6952 20.5419 11.7918 20.6881 11.9344 20.8033C12.0769 20.9185 12.2573 21.0042 12.476 21.0594C12.7113 21.1188 12.9211 21.1263 13.1052 21.0825C13.2893 21.0387 13.4474 20.9401 13.5797 20.787C13.6338 20.719 13.6998 20.663 13.7779 20.6192C13.8556 20.5753 13.9658 20.5718 14.1076 20.6076C14.2279 20.638 14.3232 20.6955 14.3942 20.7776C14.4652 20.8597 14.4895 20.9449 14.4674 21.0327Z" fill="black"/>
<path d="M16.634 19.6567L16.4183 20.5114L18.1734 20.9543L18.3891 20.0996C18.4236 19.9629 18.4949 19.8689 18.6031 19.8198C18.711 19.7699 18.8388 19.7637 18.9867 19.801C19.1353 19.8385 19.2468 19.9048 19.3209 20.0002C19.395 20.0951 19.4146 20.2123 19.3799 20.3501L18.7586 22.8122C18.723 22.9531 18.6491 23.0481 18.5371 23.0977C18.4252 23.1471 18.2965 23.1531 18.1502 23.1162C18 23.0782 17.8898 23.0118 17.8199 22.9158C17.7497 22.82 17.7324 22.702 17.7678 22.5617L18.0218 21.5552L16.2667 21.1124L16.0127 22.1188C15.9772 22.2596 15.9034 22.3548 15.7914 22.4047C15.6795 22.4543 15.5506 22.4602 15.4044 22.4233C15.2542 22.3854 15.144 22.3189 15.0741 22.2232C15.0041 22.1274 14.9867 22.0091 15.0219 21.8693L15.6432 19.4072C15.6778 19.27 15.7477 19.1757 15.8532 19.1259C15.9589 19.0754 16.088 19.0696 16.241 19.1082C16.3894 19.1456 16.501 19.212 16.575 19.3071C16.6491 19.4017 16.669 19.518 16.634 19.6567Z" fill="black"/>
<path d="M22.2283 23.6999L22.1254 23.267L20.4649 22.848L20.1804 23.1731C20.0573 23.314 19.9558 23.4073 19.8762 23.4528C19.7969 23.4983 19.6822 23.5025 19.5329 23.4648C19.4065 23.4329 19.3036 23.3719 19.2247 23.281C19.1456 23.1909 19.1174 23.1016 19.1394 23.0145C19.1514 22.9669 19.1729 22.9232 19.2039 22.8825C19.2349 22.8419 19.2847 22.7849 19.3537 22.7114L20.9638 20.9592L21.1305 20.7768C21.1958 20.7052 21.2622 20.647 21.33 20.6032C21.3974 20.5588 21.4813 20.5294 21.5815 20.515C21.6815 20.5004 21.7969 20.5097 21.9272 20.5425C22.0588 20.5757 22.1648 20.6223 22.2459 20.6824C22.327 20.7425 22.3871 20.8076 22.4264 20.8777C22.4659 20.9481 22.4942 21.0154 22.5117 21.0793C22.5294 21.1429 22.551 21.2303 22.5774 21.3399L23.1958 23.6613C23.2466 23.8434 23.2627 23.9717 23.244 24.046C23.2225 24.1311 23.1557 24.1959 23.0437 24.2409C22.9317 24.286 22.8084 24.2916 22.6741 24.2577C22.5949 24.2377 22.5297 24.2101 22.4783 24.1746C22.4268 24.1397 22.3866 24.1002 22.358 24.0566C22.329 24.0128 22.3034 23.9497 22.2804 23.8687C22.2576 23.7875 22.2404 23.7314 22.2283 23.6999ZM20.8543 22.3495L22.014 22.6422L21.7318 21.2927L20.8543 22.3495Z" fill="black"/>
<path d="M25.6148 21.9054L26.7059 24.1054L27.1637 22.2912C27.1963 22.1619 27.2626 22.0724 27.3617 22.0239C27.4608 21.9753 27.5814 21.969 27.7226 22.0046C27.8673 22.0411 27.9725 22.1044 28.0381 22.1945C28.1036 22.2851 28.12 22.395 28.0874 22.5243L27.4672 24.9821C27.3905 25.2861 27.1757 25.3933 26.8219 25.304C26.735 25.2821 26.6596 25.2538 26.5956 25.2185C26.5317 25.1833 26.4745 25.1383 26.4236 25.0836C26.3732 25.0289 26.3318 24.9748 26.3001 24.9204C26.2685 24.8661 26.2332 24.8052 26.1945 24.7357L25.1292 22.5422L24.6782 24.3297C24.6452 24.4603 24.5761 24.5496 24.4709 24.5983C24.3653 24.6464 24.2443 24.6536 24.1077 24.6191C23.9652 24.5832 23.8607 24.5191 23.7938 24.4267C23.7266 24.335 23.7099 24.2236 23.7426 24.0938L24.3508 21.6834C24.378 21.5759 24.4138 21.499 24.4589 21.4523C24.5229 21.3839 24.609 21.3393 24.7169 21.3183C24.8246 21.297 24.9348 21.3004 25.0466 21.3286C25.1338 21.3506 25.2062 21.3801 25.264 21.4171C25.3217 21.4544 25.3697 21.4956 25.4072 21.5419C25.4447 21.5874 25.4791 21.6417 25.5114 21.7029C25.5427 21.7652 25.5774 21.8327 25.6148 21.9054Z" fill="black"/>
<path d="M30.1075 23.0391L31.1984 25.2391L31.6562 23.4249C31.6888 23.2956 31.7551 23.2061 31.8545 23.1576C31.9536 23.1091 32.074 23.1027 32.2151 23.1383C32.3601 23.1749 32.4653 23.2382 32.5306 23.3282C32.5961 23.4188 32.6126 23.5287 32.5799 23.658L31.9597 26.1158C31.883 26.4198 31.6682 26.527 31.3147 26.4378C31.2278 26.4158 31.1522 26.3874 31.0884 26.3522C31.0242 26.3169 30.967 26.2719 30.9163 26.2174C30.8657 26.1626 30.8246 26.1085 30.7929 26.0542C30.7611 26.0005 30.7259 25.9389 30.6872 25.8694L29.622 23.676L29.1709 25.4634C29.138 25.5941 29.0688 25.6834 28.9634 25.732C28.8581 25.7801 28.7371 25.7873 28.6002 25.7528C28.4577 25.7168 28.3532 25.6528 28.2863 25.5604C28.2194 25.4688 28.2024 25.3573 28.2351 25.2275L28.8434 22.8171C28.8705 22.7096 28.9063 22.6326 28.9514 22.586C29.0155 22.5176 29.1016 22.473 29.2094 22.4519C29.3174 22.4307 29.4273 22.4341 29.5394 22.4624C29.6263 22.4843 29.6987 22.5138 29.7567 22.5509C29.8144 22.5881 29.8624 22.6294 29.8998 22.6756C29.9373 22.7211 29.9718 22.7754 30.0039 22.8365C30.0356 22.8985 30.0699 22.9664 30.1075 23.0391Z" fill="black"/>
<path d="M36.1811 24.8014L34.2823 24.3223L34.1093 25.0079L35.8531 25.4479C36.0024 25.4856 36.1094 25.5398 36.1741 25.6106C36.2389 25.6816 36.261 25.7576 36.2405 25.8391C36.2192 25.9233 36.1635 25.9826 36.0733 26.0157C35.9837 26.0492 35.8626 26.0471 35.7115 26.0089L33.9678 25.5689L33.7645 26.3746L35.7306 26.8708C35.884 26.9095 35.9944 26.9665 36.0624 27.0412C36.1301 27.1151 36.1527 27.197 36.1308 27.2836C36.1086 27.3716 36.0502 27.4311 35.9549 27.4651C35.8598 27.4989 35.7354 27.4964 35.5824 27.4578L33.219 26.8614C33.0125 26.8093 32.8712 26.7364 32.7939 26.6427C32.7171 26.5493 32.6973 26.4277 32.7348 26.2793L33.3275 23.9302C33.352 23.8335 33.3929 23.759 33.4505 23.705C33.5088 23.6507 33.5863 23.6201 33.6835 23.6129C33.7806 23.6056 33.8961 23.6185 34.0289 23.652L36.3249 24.2314C36.4806 24.2707 36.5908 24.3265 36.6571 24.3993C36.7236 24.4717 36.7459 24.5495 36.725 24.6323C36.7032 24.719 36.6455 24.7782 36.5527 24.8114C36.46 24.8439 36.3363 24.8406 36.1811 24.8014Z" fill="black"/>
<path d="M38.1456 25.0852L37.582 27.3187L39.2847 27.7484C39.4417 27.788 39.5565 27.8478 39.6293 27.9273C39.702 28.0073 39.7275 28.0901 39.7057 28.1765C39.683 28.2665 39.6213 28.3293 39.5199 28.3629C39.4186 28.3971 39.2892 28.394 39.1318 28.3543L37.032 27.8245C36.8255 27.7724 36.6837 27.6993 36.6069 27.6057C36.5297 27.5117 36.5104 27.3903 36.5478 27.2424L37.1551 24.8353C37.1896 24.6986 37.2609 24.6046 37.3692 24.5552C37.4774 24.5052 37.6052 24.499 37.7529 24.5363C37.9013 24.5737 38.0132 24.6401 38.0873 24.7355C38.1609 24.8303 38.1806 24.9465 38.1456 25.0852Z" fill="black"/>
</svg>
