<svg width="140" height="51" viewBox="0 0 140 51" fill="none" xmlns="http://www.w3.org/2000/svg">
<g clip-path="url(#clip0_1_394)">
<path d="M25.6709 10.2065C18.4837 10.2065 10.9036 14.8955 10.9036 25.5244C10.9036 36.0991 18.4837 40.7881 25.6709 40.7881C32.9126 40.7881 40.4982 36.0991 40.4982 25.5244C40.4982 14.8955 32.9181 10.2065 25.6709 10.2065ZM25.6763 35.5468C21.4197 35.5468 17.4413 32.4171 17.4413 25.5298C17.4413 18.4313 21.4251 15.4586 25.6763 15.4586C30.0366 15.4586 33.9659 18.5883 33.9659 25.5298C33.9659 32.363 30.0366 35.5468 25.6763 35.5468ZM0 40.1817H6.23217V0H0V40.1817ZM56.0731 32.455L49.066 10.8183H42.0535L52.9625 40.1817H59.1838L70.0928 10.8183H63.0857L56.0731 32.455ZM119.028 9.32392L114.597 13.7422C118.275 16.5849 120.387 20.8732 120.387 25.5027C120.387 30.1322 118.275 34.4151 114.597 37.2632L119.028 41.6761C123.852 37.6476 126.613 31.762 126.613 25.5027C126.613 19.238 123.852 13.3524 119.028 9.32392ZM74.7696 40.1817H80.9963V10.8183H74.7696V40.1817ZM96.5713 3.09173H90.3446V10.8183H85.6732V15.4532H90.3446V31.4425C90.3446 37.5826 93.0568 40.1762 99.1307 40.1762H102.803V34.4801H100.413C97.5209 34.4801 96.5713 33.7058 96.5713 30.6628V15.4532H102.803V10.8183H96.5713V3.09173ZM128.605 0.20034L128.382 0L123.972 4.40206L124.218 4.61864C130.286 9.88704 133.768 17.4999 133.768 25.5027C133.768 33.5055 130.286 41.1184 124.218 46.3868L123.972 46.6034L128.382 51.0054L128.605 50.8051C135.847 44.3725 140 35.1461 140 25.5027C140 15.8539 135.847 6.63287 128.605 0.20034ZM74.7696 6.18346H80.9963V0H74.7696V6.18346Z" fill="white"/>
</g>
<defs>
<clipPath id="clip0_1_394">
<rect width="140" height="51" fill="white"/>
</clipPath>
</defs>
</svg>
