<svg width="72" height="72" viewBox="0 0 72 72" fill="none" xmlns="http://www.w3.org/2000/svg">
<circle cx="36" cy="36" r="35.5" stroke="#24272A"/>
<path d="M24.8271 28H22.9209V40.5937H22.7646L14.0146 28H12.1396V44H14.0771V31.4375H14.2334L22.9521 44H24.8271V28ZM28.7041 44H38.4854V42.2812H30.6416V36.8437H37.8604V35.125H30.6416V29.7187H38.3604V28H28.7041V44ZM44.7588 44H46.7588L50.29 31.25H50.415L53.9463 44H55.9463L60.3213 28H58.3525L55.0088 41.0312H54.8525L51.4463 28H49.2588L45.8525 41.0312H45.6963L42.3525 28H40.3838L44.7588 44Z" fill="#24272A"/>
</svg>
