<svg width="38" height="30" viewBox="0 0 38 30" fill="none" xmlns="http://www.w3.org/2000/svg">
<path d="M7.41913 7.36556C1.78373 9.48 -0.988442 15.9814 1.22731 21.8868C3.44307 27.7923 9.80769 30.8655 15.4431 28.751C18.4715 27.6147 20.673 25.2115 21.718 22.3147C24.4105 23.8092 27.6495 24.1711 30.6779 23.0348C36.3133 20.9204 39.0855 14.419 36.8697 8.51355C34.654 2.60811 28.2894 -0.46509 22.654 1.64935C19.6256 2.78563 17.424 5.18886 16.3791 8.08562C13.6866 6.59119 10.4475 6.22928 7.41913 7.36556ZM8.29675 9.70459C12.6994 8.05269 17.6718 10.4536 19.4028 15.0672C21.1339 19.6809 18.9681 24.7601 14.5655 26.412C10.1628 28.0639 5.19046 25.6629 3.4594 21.0493C1.72834 16.4357 3.89409 11.3565 8.29675 9.70459ZM5.5766 15.6238L8.67613 23.8846L13.9175 21.918C16.3073 21.0214 17.6166 18.7661 16.647 16.182C15.6775 13.5979 13.1192 12.7937 10.818 13.6571L5.5766 15.6238ZM20.0143 10.8631L22.3682 9.97995L24.8669 13.4181L24.7508 9.08596L26.5411 8.41422L29.3099 11.7709L28.9238 7.52023L31.2777 6.63704L31.8142 14.7795L29.7925 15.5381L27.0429 12.4984L26.9526 16.6036L24.9663 17.3489L20.0143 10.8631ZM8.97031 17.0743L11.3452 16.1832C12.6086 15.7092 13.5758 16.0757 13.9968 17.1976C14.4146 18.3112 13.9531 19.1596 12.6814 19.6367L10.2711 20.5411L8.97031 17.0743Z" fill="#012D5B"/>
</svg>
