<svg width="313" height="39" viewBox="0 0 313 39" fill="none" xmlns="http://www.w3.org/2000/svg">
<path opacity="0.75" fill-rule="evenodd" clip-rule="evenodd" d="M7.894 23.7041C7.894 28.3793 10.5559 31.8429 15.5799 31.8429L15.5861 31.849C18.2419 31.849 20.2307 30.876 21.5218 29.2666L25.9094 35.6308C23.3821 37.693 19.943 38.9536 15.5799 38.9536C5.19535 38.9536 0 31.8429 0 23.698C0 15.547 5.20147 8.44851 15.5799 8.44851C20.5366 8.44851 24.2939 10.0763 26.8824 12.6525L21.8033 18.4904C20.5244 16.6729 18.4377 15.5531 15.5799 15.5531C10.5559 15.5531 7.894 19.0167 7.894 23.7041ZM104.739 23.5695C104.739 15.4185 99.55 8.31388 89.1593 8.31388C78.7686 8.31388 73.5855 15.4185 73.5855 23.5695C73.5855 31.7205 78.7747 38.819 89.1593 38.819C99.5439 38.819 104.739 31.7144 104.739 23.5695ZM168.852 23.4532C168.852 12.8667 176.936 8.60149 183.214 8.60149C194.78 8.60149 198.513 17.7806 196.652 26.0907H176.997C177.921 30.1845 182.235 31.8796 186.825 31.8796C189.723 31.9074 192.595 31.33 195.257 30.1845V36.5609C192.638 37.6685 189.205 38.3111 185.019 38.3111C176.183 38.3111 168.852 33.2259 168.852 23.4532ZM139.644 38.1948H147.33V29.0035H151.149C158.333 28.9607 163.816 26.6659 163.816 18.9738C163.816 11.2818 158.333 8.94417 151.149 8.94417H139.644V38.1948ZM251.066 38.1948H258.752H258.758V26.9107H262.368L269.43 38.1948H277.948L268.396 23.1901L277.52 8.94417H269.014L262.405 20.0202H258.752V8.94417H251.066V38.1948ZM204.601 38.1948H242.609V8.94417H234.929V31.2983H227.445V8.94417H219.759V31.2983H212.287V8.94417H204.601V38.1948ZM34.3419 38.1948H42.0279L42.034 38.2009V22.6149L48.2635 32.259H52.6695L58.899 22.6516V38.1948H66.5849V8.94417H59.3151L50.4665 22.6516L41.6179 8.94417H34.3419V38.1948ZM124.333 15.8407H133.084L133.09 15.8346V8.94417H106.147L109.843 15.8407H116.635V38.1948H124.333V15.8407ZM305.112 38.1948H313V38.1887L301.575 8.93806H293.265L281.846 38.1887H289.74L291.399 33.593H303.454L305.112 38.1948ZM81.4734 23.5695C81.4734 18.8882 84.1353 15.4185 89.1593 15.4185C94.1833 15.4185 96.8453 18.8882 96.8453 23.5695C96.8453 28.2447 94.1833 31.7144 89.1593 31.7144C84.1353 31.7144 81.4734 28.2447 81.4734 23.5695ZM293.689 27.3268H301.165L298.173 18.882C297.821 17.9235 297.571 16.9308 297.426 15.9203C297.281 16.9328 297.031 17.9275 296.68 18.8882L293.689 27.3268ZM147.33 15.6265H151.522C153.847 15.6265 155.928 16.3425 155.928 18.9738C155.928 21.6052 153.847 22.315 151.522 22.315H147.33V15.6265ZM186.06 3.31435C186.06 4.9421 187.485 6.25165 189.303 6.25165C191.078 6.25165 192.503 4.9421 192.503 3.31435C192.503 1.68659 191.078 0.340332 189.303 0.340332C187.485 0.340332 186.06 1.68659 186.06 3.31435ZM174.396 3.31435C174.396 4.9421 175.865 6.25165 177.639 6.25165C179.414 6.25165 180.846 4.9421 180.846 3.31435C180.846 1.68659 179.414 0.340332 177.639 0.340332C175.865 0.340332 174.396 1.68659 174.396 3.31435ZM189.401 20.8463C189.689 18.9126 188.587 14.8187 183.526 14.8187C180.093 14.8187 177.07 16.985 176.954 20.8402H187.883L189.401 20.8463Z" fill="white"/>
</svg>
