<svg width="49" height="19" viewBox="0 0 49 19" fill="none" xmlns="http://www.w3.org/2000/svg">
<path fill-rule="evenodd" clip-rule="evenodd" d="M0 18.8388H49V16.837H0V18.8388Z" fill="#24272A"/>
<path fill-rule="evenodd" clip-rule="evenodd" d="M38.3313 0V1.9617H41.3926V15.6917H43.7879V1.9617H46.8492V0H38.3313ZM35.7375 10.5259C36.6208 10.2803 37.2665 9.50683 37.2665 8.59008V1.9617C37.2665 0.846989 36.313 0 35.137 0H29.8133V15.6922H32.2086V1.9617H34.0723C34.5375 1.9617 34.8707 2.32934 34.8707 2.75825V8.3365C34.8707 8.70415 34.5375 9.07179 34.0723 9.07179H32.7412L34.8707 15.6922H37.3994L35.7375 10.5259ZM27.9501 15.6922L24.7549 0H22.0933L18.8986 15.6922H21.2944L23.4239 3.92292L24.8436 11.7692H22.3596L22.8918 13.7309H25.1985L25.5534 15.6922H27.9501ZM10.6474 0V1.9617H13.7087V15.6917H16.1041V1.9617H19.1654V0H10.6474ZM9.84897 15.694H7.45317V13.5801C7.45317 13.1173 7.31884 12.6634 7.06479 12.2684L2.90573 6.6232C2.40035 5.84141 2.1307 4.93066 2.12897 3.99975V2.01826C2.12897 0.904021 3.08295 0.00094267 4.25893 0.00094267H7.4527C8.62915 0.00094267 9.58219 0.904021 9.58219 2.01826V4.90471H7.18686V2.71819C7.18686 2.30059 6.82912 1.9617 6.38795 1.9617H5.32368C4.88251 1.9617 4.52476 2.30059 4.52476 2.71819V3.98467C4.52476 4.44705 4.65909 4.90094 4.91314 5.29592L9.0722 10.9406C9.5776 11.7224 9.84726 12.6332 9.84897 13.5641V15.6945V15.694ZM2.12897 15.6922H4.52476V13.7309H2.12897V15.6922Z" fill="#24272A"/>
</svg>
