<svg width="32" height="33" viewBox="0 0 32 33" fill="none" xmlns="http://www.w3.org/2000/svg">
<path fill-rule="evenodd" clip-rule="evenodd" d="M15.974 32.8704C24.7962 32.8704 31.948 25.7186 31.948 16.8964C31.948 8.07418 24.7962 0.922363 15.974 0.922363C7.15181 0.922363 0 8.07418 0 16.8964C0 25.7186 7.15181 32.8704 15.974 32.8704ZM13.0455 24.2176C13.434 24.2176 13.6115 24.0448 13.8261 23.8359L13.8442 23.8183L15.7628 21.9527L19.7546 24.9019C20.4892 25.3072 21.0194 25.0973 21.2024 24.2198L23.8228 11.8715C24.091 10.7959 23.4127 10.3081 22.71 10.6271L7.323 16.5603C6.27269 16.9815 6.27882 17.5675 7.13155 17.8286L11.0802 19.061L20.2217 13.2937C20.6533 13.032 21.0494 13.1727 20.7243 13.4613L13.3175 20.1453L13.3173 20.1452L13.3173 20.1455L13.317 20.1457L13.3173 20.1459L13.0455 24.2176Z" fill="#24272A"/>
</svg>
