<svg width="41" height="40" viewBox="0 0 41 40" fill="none" xmlns="http://www.w3.org/2000/svg">
<path d="M20.5062 22.58C19.5495 23.627 18.3993 22.4621 18.3993 22.4621L17.1925 21.3593L18.9212 19.4674L20.1281 20.5701C21.3784 21.6961 20.5062 22.58 20.5062 22.58ZM21.5577 16.582L22.4774 17.4223C23.3826 18.3494 22.6452 19.0841 22.6452 19.0841C21.7735 20.038 20.7033 19.0886 20.7033 19.0886L19.9207 18.3735L21.5577 16.582ZM21.7713 20.7472C21.7713 20.7472 22.9447 21.122 23.8584 20.1073C23.8584 20.1073 25.4934 18.5701 23.6502 16.5161L21.4006 14.4605L15.0726 21.3859L17.6512 23.7421C17.6512 23.7421 19.7994 25.7177 21.5912 23.7568C21.5912 23.7567 22.8615 22.4688 21.7713 20.7472ZM20.1511 10.8289L29.6225 19.4834L20.8182 29.1188L11.3468 20.4644L20.1511 10.8289ZM9.58422 12.6001C8.62749 13.6471 7.47735 12.4822 7.47735 12.4822L6.27037 11.3793L7.99912 9.48737L9.2061 10.5902C10.4565 11.7163 9.58422 12.6001 9.58422 12.6001ZM10.6356 6.60201L11.5555 7.44252C12.4607 8.36963 11.7232 9.10419 11.7232 9.10419C10.8516 10.0581 9.78145 9.10881 9.78145 9.10881L8.99863 8.39351L10.6356 6.60201ZM10.8494 10.7673C10.8494 10.7673 12.0229 11.1423 12.9365 10.1275C12.9365 10.1275 14.5715 8.59026 12.7282 6.53627L10.4785 4.48061L4.15054 11.4059L6.72932 13.7623C6.72932 13.7623 8.87751 15.7379 10.6693 13.777C10.6693 13.777 11.9394 12.4889 10.8494 10.7673ZM9.22925 0.849121L18.7006 9.50353L9.8963 19.139L0.424916 10.4846L9.22925 0.849121ZM36.9187 29.5512L35.7496 30.8307C35.7496 30.8307 35.2941 29.0061 34.0299 27.8226C34.0299 27.8226 31.691 25.5928 29.2822 28.0132C29.2822 28.0132 27.0796 30.2507 29.5089 32.7126C29.5089 32.7126 30.4516 33.8293 32.8161 34.1564L31.6053 35.4814C31.6053 35.4814 28.5173 34.9512 27.1407 31.9285C27.1407 31.9285 25.9277 29.4486 28.0966 26.9299C28.0966 26.9299 30.3228 24.3352 33.6166 25.8083C33.6166 25.8083 34.5469 26.1462 35.647 27.3791C35.6471 27.3791 36.3016 28.1192 36.9187 29.5512ZM22.2688 30.4442L31.7401 39.0986L40.5445 29.4632L31.0731 20.8088L22.2688 30.4442Z" fill="black"/>
</svg>
