<svg width="33" height="33" viewBox="0 0 33 33" fill="none" xmlns="http://www.w3.org/2000/svg">
<path fill-rule="evenodd" clip-rule="evenodd" d="M16.8311 0.922363C8.00887 0.922363 0.857056 8.07418 0.857056 16.8964C0.857056 25.7186 8.00887 32.8704 16.8311 32.8704C25.6533 32.8704 32.8051 25.7186 32.8051 16.8964C32.8051 8.07418 25.6533 0.922363 16.8311 0.922363ZM18.1317 21.939C17.9742 22.1051 17.6667 22.1386 17.6667 22.1386H16.6483C16.6483 22.1386 14.4015 22.2712 12.4223 20.249C10.2638 18.0427 8.35789 13.6654 8.35789 13.6654C8.35789 13.6654 8.24788 13.3783 8.36705 13.24C8.50123 13.0838 8.86708 13.0739 8.86708 13.0739L11.3014 13.0584C11.3014 13.0584 11.5305 13.0952 11.6947 13.2138C11.8306 13.312 11.9064 13.4944 11.9064 13.4944C11.9064 13.4944 12.2998 14.4712 12.8206 15.3546C13.8382 17.0799 14.3115 17.457 14.6565 17.2721C15.1599 17.003 15.0091 14.8335 15.0091 14.8335C15.0091 14.8335 15.0182 14.0466 14.7557 13.6957C14.5524 13.4241 14.169 13.3447 13.9998 13.3226C13.8623 13.3046 14.0873 12.9921 14.379 12.8523C14.8174 12.642 15.5908 12.6297 16.505 12.6387C17.2175 12.6461 17.4225 12.6895 17.7009 12.7557C18.3469 12.9087 18.3267 13.3991 18.2832 14.4575C18.2702 14.7741 18.2551 15.1414 18.2551 15.5657C18.2551 15.661 18.2522 15.7627 18.2493 15.8672C18.2342 16.4095 18.2169 17.0304 18.5809 17.2615C18.7676 17.3793 19.2234 17.2787 20.3643 15.3775C20.9052 14.4761 21.3102 13.4167 21.3102 13.4167C21.3102 13.4167 21.3994 13.2277 21.5369 13.1467C21.6777 13.0641 21.8677 13.0895 21.8677 13.0895L24.4295 13.0739C24.4295 13.0739 25.1996 12.9831 25.3238 13.3251C25.4546 13.6826 25.0362 14.5186 23.9895 15.888C22.9966 17.1873 22.5134 17.6657 22.5578 18.0888C22.5902 18.398 22.9043 18.6776 23.507 19.2264C24.7652 20.3731 25.1025 20.9764 25.1835 21.1213C25.1902 21.1334 25.1952 21.1422 25.1988 21.148C25.7629 22.0666 24.5729 22.1386 24.5729 22.1386L22.2969 22.1697C22.2969 22.1697 21.8086 22.2646 21.1652 21.831C20.8282 21.6041 20.4989 21.2335 20.1852 20.8805C19.7062 20.3414 19.2636 19.8434 18.8859 19.961C18.2517 20.159 18.2709 21.4997 18.2709 21.4997C18.2709 21.4997 18.2759 21.7869 18.1317 21.939Z" fill="#24272A"/>
</svg>
